<svg id="Livello_1" data-name="Livello 1" xmlns="http://www.w3.org/2000/svg" viewBox="0 0 288.23 61.48"><defs><style>.cls-1{fill:#4f5252;}.cls-2{fill:#01a862;}</style></defs><title>Tavola disegno 1 copia 8</title><g id="_Group_" data-name="&lt;Group&gt;"><g id="_Group_2" data-name="&lt;Group&gt;"><path id="_Compound_Path_" data-name="&lt;Compound Path&gt;" class="cls-1" d="M137.56,45.2h-3.39l-.38-.83a7.8,7.8,0,0,1-4.51,1.24,9.48,9.48,0,0,1-6.19-2.07,7.48,7.48,0,0,1-2.55-6.17v-13q0-5.3,3.6-7.49a9,9,0,0,1,4.43-1,12.79,12.79,0,0,1,5.88,1.37l-1.11,3.23a11.42,11.42,0,0,0-4-.79q-5,0-5,4.35V37.45q0,4.39,4.93,4.39a5,5,0,0,0,3.29-1.08,4,4,0,0,0,1.3-3.27V36.42h-2.48l-1.24-3.65h7.45Z"/><path id="_Compound_Path_2" data-name="&lt;Compound Path&gt;" class="cls-1" d="M146.34,25.07a9.2,9.2,0,0,1,4.27-1,23,23,0,0,1,3.15.46l-.92,3.6a5,5,0,0,0-2.19-.54,6.13,6.13,0,0,0-2,.34,3,3,0,0,0-2.24,2.9V45.2h-3.77V24.45h3.57Z"/><path id="_Compound_Path_3" data-name="&lt;Compound Path&gt;" class="cls-1" d="M161.71,42.21a11.94,11.94,0,0,0,5.42-1.65l1.41,3.19a12.66,12.66,0,0,1-6.67,1.94q-7.2,0-7.2-6V31.16a6.6,6.6,0,0,1,2.09-5.22,8,8,0,0,1,5.53-1.87,7.43,7.43,0,0,1,5.36,1.85A6.7,6.7,0,0,1,169.58,31v6l-11.1.63v1.61a2.59,2.59,0,0,0,1,2.32A3.93,3.93,0,0,0,161.71,42.21Zm4.06-8.53V31a2.94,2.94,0,0,0-1.08-2.51,4.38,4.38,0,0,0-2.67-.8,3.33,3.33,0,0,0-3.54,3.52v2.9Z"/><path id="_Compound_Path_4" data-name="&lt;Compound Path&gt;" class="cls-1" d="M179.68,42.21a12,12,0,0,0,5.43-1.65l1.41,3.19a12.69,12.69,0,0,1-6.67,1.94q-7.22,0-7.21-6V31.16a6.63,6.63,0,0,1,2.09-5.22,8,8,0,0,1,5.53-1.87,7.47,7.47,0,0,1,5.37,1.85A6.73,6.73,0,0,1,187.55,31v6l-11.1.63v1.61a2.62,2.62,0,0,0,1,2.32A4,4,0,0,0,179.68,42.21Zm4.06-8.53V31a2.94,2.94,0,0,0-1.08-2.51,4.34,4.34,0,0,0-2.67-.8,3.33,3.33,0,0,0-3.54,3.52v2.9Z"/><path id="_Compound_Path_5" data-name="&lt;Compound Path&gt;" class="cls-1" d="M195.55,25.11a8.25,8.25,0,0,1,4-1,10.47,10.47,0,0,1,4,.75q3.53,1.62,3.52,6V45.2h-3.77V31.73a3.77,3.77,0,0,0-1.2-3,4.39,4.39,0,0,0-3-1,7.63,7.63,0,0,0-3.6.95V45.2h-3.73V24.45h3.44Z"/><path id="_Compound_Path_6" data-name="&lt;Compound Path&gt;" class="cls-1" d="M225.82,26.1a13.7,13.7,0,0,1,6.67-2A6.07,6.07,0,0,1,237.21,26,6.9,6.9,0,0,1,239,30.87V45.2h-3.77V32c0-2.92-1.09-4.39-3.27-4.39a8.65,8.65,0,0,0-2.94.63l-1,.41a4.68,4.68,0,0,1,.38,1.95V45.2h-3.77V32.11a4.47,4.47,0,0,0-1.18-3.4,4.07,4.07,0,0,0-2.88-1.12,7.41,7.41,0,0,0-3.64,1.12V45.2h-3.77V24.45h3.43l.25.66a7.74,7.74,0,0,1,3.89-1A6.71,6.71,0,0,1,225.82,26.1Z"/><path id="_Compound_Path_7" data-name="&lt;Compound Path&gt;" class="cls-1" d="M247.86,17.84a2,2,0,0,1-.62,1.45,2,2,0,0,1-1.43.64,2,2,0,0,1-1.45-.64,2,2,0,0,1-.65-1.45,1.93,1.93,0,0,1,.65-1.43,2,2,0,0,1,1.45-.62,2,2,0,0,1,1.43.62A2,2,0,0,1,247.86,17.84Zm-.25,27.36h-3.77V24.45h3.77Z"/><path id="_Compound_Path_8" data-name="&lt;Compound Path&gt;" class="cls-1" d="M260.53,41.92a12.1,12.1,0,0,0,3.6-.53l1,3.56a18.87,18.87,0,0,1-4.81.7A13.83,13.83,0,0,1,256.1,45q-4.31-1.41-4.31-7.25v-5.3A9.69,9.69,0,0,1,253,27.51q2-3.44,6.55-3.44A12.82,12.82,0,0,1,265,25.4l-1,3.15a10.32,10.32,0,0,0-3.62-.83,6.57,6.57,0,0,0-2.47.41,4,4,0,0,0-2.36,4.06v6Q255.56,41.92,260.53,41.92Z"/><path id="_Compound_Path_9" data-name="&lt;Compound Path&gt;" class="cls-1" d="M274.65,42.21a12,12,0,0,0,5.43-1.65l1.41,3.19a12.69,12.69,0,0,1-6.67,1.94q-7.21,0-7.21-6V31.16a6.63,6.63,0,0,1,2.09-5.22,8,8,0,0,1,5.53-1.87,7.47,7.47,0,0,1,5.37,1.85A6.73,6.73,0,0,1,282.52,31v6l-11.1.63v1.61a2.6,2.6,0,0,0,1,2.32A3.9,3.9,0,0,0,274.65,42.21Zm4.06-8.53V31a3,3,0,0,0-1.07-2.51,4.39,4.39,0,0,0-2.68-.8,3.35,3.35,0,0,0-3.54,3.52v2.9Z"/></g><g id="_Group_3" data-name="&lt;Group&gt;"><path id="_Path_" data-name="&lt;Path&gt;" class="cls-2" d="M110.57,44.37a1.67,1.67,0,0,1-1.19-.49L97.59,32.09a1.67,1.67,0,0,1,0-2.36l11.79-12.11a1.68,1.68,0,1,1,2.4,2.34L101.13,30.89l10.62,10.62a1.67,1.67,0,0,1,0,2.37A1.63,1.63,0,0,1,110.57,44.37Z"/><g id="_Group_4" data-name="&lt;Group&gt;"><g id="_Group_5" data-name="&lt;Group&gt;"><path id="_Compound_Path_10" data-name="&lt;Compound Path&gt;" class="cls-2" d="M31.46,28.32c-.66,1.32-1.57,3.13-4.5,3.13-2.14,0-4-1.08-6-2.22-2.22-1.28-4.51-2.59-7.46-2.59-3.73,0-6.59,1.91-7.67,5.14a2.59,2.59,0,0,0-.13.81,1.7,1.7,0,0,0,1.67,1.66,1.68,1.68,0,0,0,1.61-1C9.68,31.84,10.58,30,13.51,30c2.17,0,4,1.05,5.87,2.18,2.18,1.29,4.45,2.62,7.58,2.62,3.73,0,6.59-1.92,7.67-5.15a2.68,2.68,0,0,0,.13-.8,1.7,1.7,0,0,0-1.66-1.66,1.69,1.69,0,0,0-1.62,1Z"/></g></g><path id="_Compound_Path_11" data-name="&lt;Compound Path&gt;" class="cls-2" d="M53,13.86c11.29,0,23.5,2.77,29.69,6.73,4.63,3,7.2,6.5,7.23,10S87.4,37.68,82.59,40.9C76.77,44.8,64.31,47.62,53,47.62a8.86,8.86,0,0,1-7.59-3.88c-2.13-3-3.26-7.6-3.26-13.31s1.13-10.2,3.27-13A8.88,8.88,0,0,1,53,13.86m0-3.65c-8.64,0-14.5,6.58-14.5,20.22,0,13.33,5.66,20.84,14.5,20.84,12,0,25-2.91,31.66-7.34,12.48-8.36,11.27-19.2,0-26.42-6.85-4.38-19.69-7.3-31.66-7.3Z"/></g></g></svg>